<svg id="Layer_1" data-name="Layer 1" xmlns="http://www.w3.org/2000/svg" viewBox="0 0 512 512.05"><defs><style>.cls-1{fill:#33b8dd;}</style></defs><title>011-playlist</title><path class="cls-1" d="M512,488.05a20,20,0,0,1-20,20H314a20,20,0,0,1,0-40H492A20,20,0,0,1,512,488.05Zm-20-138H314a20,20,0,0,0,0,40H492a20,20,0,0,0,0-40Zm-263-5a25,25,0,1,0,25,25A25,25,0,0,0,229,345.05Zm263-109H314a20,20,0,0,0,0,40H492a20,20,0,0,0,0-40Zm0-118H399a20,20,0,1,0,0,40h93a20,20,0,0,0,0-40Zm-93-78h93a20,20,0,0,0,0-40H399a20,20,0,0,0,0,40ZM310.52,157A139.68,139.68,0,0,1,272,162.05h0c-22.65,0-43.95-5.08-58.43-13.94A20,20,0,1,1,234.46,114c8,4.89,22.75,8.06,37.57,8.06h0a100.88,100.88,0,0,0,27.28-3.49A6.71,6.71,0,0,0,304,112.1V61.77a6.72,6.72,0,0,0-2.41-5.2,6.61,6.61,0,0,0-5.41-1.5,143.45,143.45,0,0,1-23.16,2c-13.28,0-55.43-2.51-74.17-14a20.22,20.22,0,0,0-30.76,17.25s-.06,290.31-.15,291.09a84,84,0,1,1-39.85-73.83V60.33A60.22,60.22,0,0,1,219.75,9c5.73,3.47,33,8.09,53.08,8.09H273a103.64,103.64,0,0,0,16.61-1.43A46.76,46.76,0,0,1,344,61.77V112.1A46.91,46.91,0,0,1,310.52,157ZM128,349.05a44,44,0,1,0-44,44A44.05,44.05,0,0,0,128,349.05Zm101-118a25,25,0,1,0,25,25A25,25,0,0,0,229,231.05Zm0,231a25,25,0,1,0,25,25A25,25,0,0,0,229,462.05Z" transform="translate(-0.03 0)"/></svg>