<svg id="Layer_1" data-name="Layer 1" xmlns="http://www.w3.org/2000/svg" viewBox="0 0 512 500.05"><defs><style>.cls-1{fill:#e9ad38;}</style></defs><title>048-music player</title><path class="cls-1" d="M142.9,496a73.11,73.11,0,0,1-43.22-14.21A72,72,0,0,1,71,411l12.15-70.2A32.32,32.32,0,0,0,73.66,312L22.18,262.28A72.47,72.47,0,0,1,62.65,138.39l71.13-10.25a33,33,0,0,0,24.91-17.89L190.5,46.38a73.29,73.29,0,0,1,131,0l31.81,63.87a33,33,0,0,0,24.91,17.89l71.13,10.25a72.47,72.47,0,0,1,40.46,123.89L462.6,288.57a20,20,0,1,1-27.79-28.77L462,233.51a31.7,31.7,0,0,0,8.37-33.16A32.31,32.31,0,0,0,443.65,178l-71.13-10.24a73,73,0,0,1-55-39.66L285.69,64.21a33.29,33.29,0,0,0-59.39,0l-31.81,63.87a73,73,0,0,1-55,39.65L68.35,178a32.29,32.29,0,0,0-26.74,22.37A31.7,31.7,0,0,0,50,233.51l51.48,49.72a72.26,72.26,0,0,1,21.07,64.35l-12.15,70.2a31.81,31.81,0,0,0,12.9,31.66,32.8,32.8,0,0,0,35.16,2.64l63.63-33.14c12.08-6.3,24.75-9.38,36.66-8.95a53.7,53.7,0,0,1,11.82,2c.7.18,1.39.36,2.08.52a20,20,0,0,1-9,39c-1-.24-2.05-.5-3.07-.77-1.18-.3-2.78-.72-3.36-.77-4.88-.18-10.67,1.36-16.61,4.45l-63.62,33.15a73.6,73.6,0,0,1-34,8.39Zm263.46,2.72,80.38-47.57a51.16,51.16,0,0,0,0-88.24l-80.38-47.58a51.58,51.58,0,0,0-52.38-.41,50.74,50.74,0,0,0-26,44.53v95.15a50.77,50.77,0,0,0,26,44.54,51.55,51.55,0,0,0,52.38-.42ZM386,349.71l80.38,47.57a11.16,11.16,0,0,1,0,19.39L386,464.25a11.92,11.92,0,0,1-12.2.09,11.16,11.16,0,0,1-5.79-9.79V359.4a11.14,11.14,0,0,1,5.79-9.78,12.46,12.46,0,0,1,6.09-1.65,11.87,11.87,0,0,1,6.11,1.74Z" transform="translate(0 -5.97)"/></svg>