<svg id="Layer_1" data-name="Layer 1" xmlns="http://www.w3.org/2000/svg" viewBox="0 0 512 512"><defs><style>.cls-1{fill:#dd3d33;}</style></defs><title>025-playlist</title><path class="cls-1" d="M512,120V265a20,20,0,0,1-40,0V120a80.09,80.09,0,0,0-80-80H120a80.09,80.09,0,0,0-80,80V392a80.09,80.09,0,0,0,80,80H271.5a20,20,0,0,1,0,40H120A120.13,120.13,0,0,1,0,392V120A120.13,120.13,0,0,1,120,0H392A120.13,120.13,0,0,1,512,120ZM194,158H398a20,20,0,0,0,0-40H194a20,20,0,0,0,0,40Zm224,98a20,20,0,0,0-20-20H194a20,20,0,0,0,0,40H398A20,20,0,0,0,418,256ZM194,354a20,20,0,0,0,0,40h39a20,20,0,0,0,0-40Zm318,25.14v.4c-.89,43.79-25.78,85.22-72,119.82a63.76,63.76,0,0,1-76,0c-46.2-34.59-71.09-76-72-119.81v-.4a65,65,0,0,1,110-47,65,65,0,0,1,110,47ZM472,379a25,25,0,0,0-50,.05,20,20,0,0,1-40,0,25,25,0,0,0-50-.05c.9,39.09,30.91,69.64,55.95,88.39a23.58,23.58,0,0,0,28.1,0C441.09,448.59,471.1,418,472,379ZM139,139a25,25,0,1,0-25,25A25,25,0,0,0,139,139Zm0,117a25,25,0,1,0-25,25A25,25,0,0,0,139,256Zm-25,93a25,25,0,1,0,25,25A25,25,0,0,0,114,349Z" transform="translate(0 0)"/></svg>