


<svg width="124" height="124" xmlns="http://www.w3.org/2000/svg" style="fill: white;">

 <g>
  <title>background</title>
  <rect fill="none" id="canvas_background" height="514" width="514" y="-1" x="-1"/>
 </g>
 <g>
  <title>Layer 1</title>
  <g id="svg_1">
   <path fill="white" id="svg_2" d="m86,124l27,0c3.3,0 6,-2.7 6,-6l0,-72.8c0,-1.9 -0.9,-3.7 -2.4,-4.8l-8.199,-6.1c-1.5,-1.1 -2.4,-2.9 -2.4,-4.8l0,-23.5c0,-3.3 -2.7,-6 -6,-6l-8,0c-3.3,0 -6,2.7 -6,6l0,6c0,2.5 -2.8,3.9 -4.8,2.4l-15.701,-11.4c-2.1,-1.5 -5,-1.5 -7.1,0l-51,37.4c-1.5,1.1 -2.4,2.9 -2.4,4.9l0,72.7c0,3.3 2.7,6 6,6l27,0c3.3,0 6,-2.7 6,-6l0,-41c0,-3.3 2.7,-6 6,-6l24,0c3.3,0 6,2.7 6,6l0,41c0,3.3 2.7,6 6,6z"/>
  </g>
  <g id="svg_3"/>
  <g id="svg_4"/>
  <g id="svg_5"/>
  <g id="svg_6"/>
  <g id="svg_7"/>
  <g id="svg_8"/>
  <g id="svg_9"/>
  <g id="svg_10"/>
  <g id="svg_11"/>
  <g id="svg_12"/>
  <g id="svg_13"/>
  <g id="svg_14"/>
  <g id="svg_15"/>
  <g id="svg_16"/>
  <g id="svg_17"/>
 </g>
</svg>