<svg width="124" height="124" xmlns="http://www.w3.org/2000/svg">

 <g>
  <title>background</title>
  <rect fill="none" id="canvas_background" height="402" width="582" y="-1" x="-1"/>
 </g>
 <g>
  <title>Layer 1</title>
  <g id="svg_1">
   <path fill="#ffffff" id="svg_2" d="m61.9,70l19.5,0c4.1,0 7.6,-3.1 7.8,-7.2c0.2,-4.3 -3.3,-7.8 -7.5,-7.8l-5.7,0c-3.6,0 -6.5,-2.8 -6.5,-6.3l0,-14.8c0,-4.3 -3.2,-7.7 -7.6,-7.5c-4.1,0.1 -6.9,3.6 -6.9,7.7l0,28.7c0,2.101 0.5,3.8 1.9,5.2c1.4,1.3 2.9,2 5,2z"/>
   <path fill="#ffffff" id="svg_3" d="m62,124c34.2,0 62,-27.8 62,-62s-27.8,-62 -62,-62s-62,27.8 -62,62s27.8,62 62,62zm0,-104c23.2,0 42,18.8 42,42s-18.8,42 -42,42s-42,-18.8 -42,-42s18.8,-42 42,-42z"/>
  </g>
  <g id="svg_4"/>
  <g id="svg_5"/>
  <g id="svg_6"/>
  <g id="svg_7"/>
  <g id="svg_8"/>
  <g id="svg_9"/>
  <g id="svg_10"/>
  <g id="svg_11"/>
  <g id="svg_12"/>
  <g id="svg_13"/>
  <g id="svg_14"/>
  <g id="svg_15"/>
  <g id="svg_16"/>
  <g id="svg_17"/>
  <g id="svg_18"/>
 </g>
</svg>